<svg width="25" height="26" viewBox="0 0 25 26" fill="none" xmlns="http://www.w3.org/2000/svg">
<path d="M12.387 2.67749C7.84504 2.67749 4.12891 6.39362 4.12891 10.9356C4.12891 16.5097 11.3547 22.8065 11.6644 23.1162C11.8708 23.2194 12.1805 23.3227 12.387 23.3227C12.5934 23.3227 12.9031 23.2194 13.1096 23.1162C13.4192 22.8065 20.645 16.5097 20.645 10.9356C20.645 6.39362 16.9289 2.67749 12.387 2.67749ZM12.387 20.9485C10.2192 18.8839 6.19342 14.4452 6.19342 10.9356C6.19342 7.5291 8.98052 4.74201 12.387 4.74201C15.7934 4.74201 18.5805 7.5291 18.5805 10.9356C18.5805 14.342 14.5547 18.8839 12.387 20.9485ZM12.387 6.80652C10.116 6.80652 8.25794 8.66459 8.25794 10.9356C8.25794 13.2065 10.116 15.0646 12.387 15.0646C14.6579 15.0646 16.516 13.2065 16.516 10.9356C16.516 8.66459 14.6579 6.80652 12.387 6.80652ZM12.387 13.0001C11.2515 13.0001 10.3225 12.071 10.3225 10.9356C10.3225 9.80007 11.2515 8.87104 12.387 8.87104C13.5225 8.87104 14.4515 9.80007 14.4515 10.9356C14.4515 12.071 13.5225 13.0001 12.387 13.0001Z" fill="#3D5AF1"/>
</svg>
