<svg width="122" height="56" viewBox="0 0 122 56" fill="none" xmlns="http://www.w3.org/2000/svg">
<circle cx="55" cy="28" r="28" fill="#DBC323"/>
<path d="M3.564 19.28C4.076 19.28 4.528 19.384 4.92 19.592C5.32 19.792 5.632 20.044 5.856 20.348V19.388H7.236V26.108C7.236 26.716 7.108 27.256 6.852 27.728C6.596 28.208 6.224 28.584 5.736 28.856C5.256 29.128 4.68 29.264 4.008 29.264C3.112 29.264 2.368 29.052 1.776 28.628C1.184 28.212 0.848 27.644 0.768 26.924H2.124C2.228 27.268 2.448 27.544 2.784 27.752C3.128 27.968 3.536 28.076 4.008 28.076C4.56 28.076 5.004 27.908 5.34 27.572C5.684 27.236 5.856 26.748 5.856 26.108V25.004C5.624 25.316 5.308 25.58 4.908 25.796C4.516 26.004 4.068 26.108 3.564 26.108C2.988 26.108 2.46 25.964 1.98 25.676C1.508 25.38 1.132 24.972 0.852 24.452C0.58 23.924 0.444 23.328 0.444 22.664C0.444 22 0.58 21.412 0.852 20.9C1.132 20.388 1.508 19.992 1.98 19.712C2.46 19.424 2.988 19.28 3.564 19.28ZM5.856 22.688C5.856 22.232 5.76 21.836 5.568 21.5C5.384 21.164 5.14 20.908 4.836 20.732C4.532 20.556 4.204 20.468 3.852 20.468C3.5 20.468 3.172 20.556 2.868 20.732C2.564 20.9 2.316 21.152 2.124 21.488C1.94 21.816 1.848 22.208 1.848 22.664C1.848 23.12 1.94 23.52 2.124 23.864C2.316 24.208 2.564 24.472 2.868 24.656C3.18 24.832 3.508 24.92 3.852 24.92C4.204 24.92 4.532 24.832 4.836 24.656C5.14 24.48 5.384 24.224 5.568 23.888C5.76 23.544 5.856 23.144 5.856 22.688ZM15.2608 19.388V26H13.8928V25.22C13.6768 25.492 13.3928 25.708 13.0408 25.868C12.6968 26.02 12.3288 26.096 11.9368 26.096C11.4168 26.096 10.9488 25.988 10.5328 25.772C10.1248 25.556 9.80081 25.236 9.56081 24.812C9.32881 24.388 9.21281 23.876 9.21281 23.276V19.388H10.5688V23.072C10.5688 23.664 10.7168 24.12 11.0128 24.44C11.3088 24.752 11.7128 24.908 12.2248 24.908C12.7368 24.908 13.1408 24.752 13.4368 24.44C13.7408 24.12 13.8928 23.664 13.8928 23.072V19.388H15.2608ZM18.0018 18.512C17.7538 18.512 17.5458 18.428 17.3778 18.26C17.2098 18.092 17.1258 17.884 17.1258 17.636C17.1258 17.388 17.2098 17.18 17.3778 17.012C17.5458 16.844 17.7538 16.76 18.0018 16.76C18.2418 16.76 18.4458 16.844 18.6138 17.012C18.7818 17.18 18.8658 17.388 18.8658 17.636C18.8658 17.884 18.7818 18.092 18.6138 18.26C18.4458 18.428 18.2418 18.512 18.0018 18.512ZM18.6738 19.388V26H17.3058V19.388H18.6738ZM20.2538 22.664C20.2538 22 20.3898 21.412 20.6618 20.9C20.9418 20.388 21.3178 19.992 21.7898 19.712C22.2698 19.424 22.8018 19.28 23.3858 19.28C23.8178 19.28 24.2418 19.376 24.6578 19.568C25.0818 19.752 25.4178 20 25.6658 20.312V17.12H27.0458V26H25.6658V25.004C25.4418 25.324 25.1298 25.588 24.7298 25.796C24.3378 26.004 23.8858 26.108 23.3738 26.108C22.7978 26.108 22.2698 25.964 21.7898 25.676C21.3178 25.38 20.9418 24.972 20.6618 24.452C20.3898 23.924 20.2538 23.328 20.2538 22.664ZM25.6658 22.688C25.6658 22.232 25.5698 21.836 25.3778 21.5C25.1938 21.164 24.9498 20.908 24.6458 20.732C24.3418 20.556 24.0138 20.468 23.6618 20.468C23.3098 20.468 22.9818 20.556 22.6778 20.732C22.3738 20.9 22.1258 21.152 21.9338 21.488C21.7498 21.816 21.6578 22.208 21.6578 22.664C21.6578 23.12 21.7498 23.52 21.9338 23.864C22.1258 24.208 22.3738 24.472 22.6778 24.656C22.9898 24.832 23.3178 24.92 23.6618 24.92C24.0138 24.92 24.3418 24.832 24.6458 24.656C24.9498 24.48 25.1938 24.224 25.3778 23.888C25.5698 23.544 25.6658 23.144 25.6658 22.688ZM35.1427 22.532C35.1427 22.78 35.1267 23.004 35.0947 23.204H30.0427C30.0827 23.732 30.2787 24.156 30.6307 24.476C30.9827 24.796 31.4147 24.956 31.9267 24.956C32.6627 24.956 33.1827 24.648 33.4867 24.032H34.9627C34.7627 24.64 34.3987 25.14 33.8707 25.532C33.3507 25.916 32.7027 26.108 31.9267 26.108C31.2947 26.108 30.7267 25.968 30.2227 25.688C29.7267 25.4 29.3347 25 29.0467 24.488C28.7667 23.968 28.6267 23.368 28.6267 22.688C28.6267 22.008 28.7627 21.412 29.0347 20.9C29.3147 20.38 29.7027 19.98 30.1987 19.7C30.7027 19.42 31.2787 19.28 31.9267 19.28C32.5507 19.28 33.1067 19.416 33.5947 19.688C34.0827 19.96 34.4627 20.344 34.7347 20.84C35.0067 21.328 35.1427 21.892 35.1427 22.532ZM33.7147 22.1C33.7067 21.596 33.5267 21.192 33.1747 20.888C32.8227 20.584 32.3867 20.432 31.8667 20.432C31.3947 20.432 30.9907 20.584 30.6547 20.888C30.3187 21.184 30.1187 21.588 30.0547 22.1H33.7147Z" fill="white"/>
<path d="M74.444 40.688C74.444 40.008 74.58 39.412 74.852 38.9C75.132 38.38 75.516 37.98 76.004 37.7C76.492 37.42 77.052 37.28 77.684 37.28C78.484 37.28 79.144 37.472 79.664 37.856C80.192 38.232 80.548 38.772 80.732 39.476H79.256C79.136 39.148 78.944 38.892 78.68 38.708C78.416 38.524 78.084 38.432 77.684 38.432C77.124 38.432 76.676 38.632 76.34 39.032C76.012 39.424 75.848 39.976 75.848 40.688C75.848 41.4 76.012 41.956 76.34 42.356C76.676 42.756 77.124 42.956 77.684 42.956C78.476 42.956 79 42.608 79.256 41.912H80.732C80.54 42.584 80.18 43.12 79.652 43.52C79.124 43.912 78.468 44.108 77.684 44.108C77.052 44.108 76.492 43.968 76.004 43.688C75.516 43.4 75.132 43 74.852 42.488C74.58 41.968 74.444 41.368 74.444 40.688ZM81.8793 40.664C81.8793 40 82.0153 39.412 82.2873 38.9C82.5673 38.388 82.9433 37.992 83.4153 37.712C83.8953 37.424 84.4233 37.28 84.9993 37.28C85.5193 37.28 85.9713 37.384 86.3553 37.592C86.7473 37.792 87.0593 38.044 87.2913 38.348V37.388H88.6713V44H87.2913V43.016C87.0593 43.328 86.7433 43.588 86.3433 43.796C85.9433 44.004 85.4873 44.108 84.9753 44.108C84.4073 44.108 83.8873 43.964 83.4153 43.676C82.9433 43.38 82.5673 42.972 82.2873 42.452C82.0153 41.924 81.8793 41.328 81.8793 40.664ZM87.2913 40.688C87.2913 40.232 87.1953 39.836 87.0033 39.5C86.8193 39.164 86.5753 38.908 86.2713 38.732C85.9673 38.556 85.6393 38.468 85.2873 38.468C84.9353 38.468 84.6073 38.556 84.3033 38.732C83.9993 38.9 83.7513 39.152 83.5593 39.488C83.3753 39.816 83.2833 40.208 83.2833 40.664C83.2833 41.12 83.3753 41.52 83.5593 41.864C83.7513 42.208 83.9993 42.472 84.3033 42.656C84.6153 42.832 84.9433 42.92 85.2873 42.92C85.6393 42.92 85.9673 42.832 86.2713 42.656C86.5753 42.48 86.8193 42.224 87.0033 41.888C87.1953 41.544 87.2913 41.144 87.2913 40.688ZM92.0761 38.348C92.2761 38.012 92.5401 37.752 92.8681 37.568C93.2041 37.376 93.6001 37.28 94.0561 37.28V38.696H93.7081C93.1721 38.696 92.7641 38.832 92.4841 39.104C92.2121 39.376 92.0761 39.848 92.0761 40.52V44H90.7081V37.388H92.0761V38.348ZM101.614 40.532C101.614 40.78 101.598 41.004 101.566 41.204H96.5136C96.5536 41.732 96.7496 42.156 97.1016 42.476C97.4536 42.796 97.8856 42.956 98.3976 42.956C99.1336 42.956 99.6536 42.648 99.9576 42.032H101.434C101.234 42.64 100.87 43.14 100.342 43.532C99.8216 43.916 99.1736 44.108 98.3976 44.108C97.7656 44.108 97.1976 43.968 96.6936 43.688C96.1976 43.4 95.8056 43 95.5176 42.488C95.2376 41.968 95.0976 41.368 95.0976 40.688C95.0976 40.008 95.2336 39.412 95.5056 38.9C95.7856 38.38 96.1736 37.98 96.6696 37.7C97.1736 37.42 97.7496 37.28 98.3976 37.28C99.0216 37.28 99.5776 37.416 100.066 37.688C100.554 37.96 100.934 38.344 101.206 38.84C101.478 39.328 101.614 39.892 101.614 40.532ZM100.186 40.1C100.178 39.596 99.9976 39.192 99.6456 38.888C99.2936 38.584 98.8576 38.432 98.3376 38.432C97.8656 38.432 97.4616 38.584 97.1256 38.888C96.7896 39.184 96.5896 39.588 96.5256 40.1H100.186ZM109.26 40.532C109.26 40.78 109.244 41.004 109.212 41.204H104.16C104.2 41.732 104.396 42.156 104.748 42.476C105.1 42.796 105.532 42.956 106.044 42.956C106.78 42.956 107.3 42.648 107.604 42.032H109.08C108.88 42.64 108.516 43.14 107.988 43.532C107.468 43.916 106.82 44.108 106.044 44.108C105.412 44.108 104.844 43.968 104.34 43.688C103.844 43.4 103.452 43 103.164 42.488C102.884 41.968 102.744 41.368 102.744 40.688C102.744 40.008 102.88 39.412 103.152 38.9C103.432 38.38 103.82 37.98 104.316 37.7C104.82 37.42 105.396 37.28 106.044 37.28C106.668 37.28 107.224 37.416 107.712 37.688C108.2 37.96 108.58 38.344 108.852 38.84C109.124 39.328 109.26 39.892 109.26 40.532ZM107.832 40.1C107.824 39.596 107.644 39.192 107.292 38.888C106.94 38.584 106.504 38.432 105.984 38.432C105.512 38.432 105.108 38.584 104.772 38.888C104.436 39.184 104.236 39.588 104.172 40.1H107.832ZM112.214 38.348C112.414 38.012 112.678 37.752 113.006 37.568C113.342 37.376 113.738 37.28 114.194 37.28V38.696H113.846C113.31 38.696 112.902 38.832 112.622 39.104C112.35 39.376 112.214 39.848 112.214 40.52V44H110.846V37.388H112.214V38.348ZM118.092 44.108C117.572 44.108 117.104 44.016 116.688 43.832C116.28 43.64 115.956 43.384 115.716 43.064C115.476 42.736 115.348 42.372 115.332 41.972H116.748C116.772 42.252 116.904 42.488 117.144 42.68C117.392 42.864 117.7 42.956 118.068 42.956C118.452 42.956 118.748 42.884 118.956 42.74C119.172 42.588 119.28 42.396 119.28 42.164C119.28 41.916 119.16 41.732 118.92 41.612C118.688 41.492 118.316 41.36 117.804 41.216C117.308 41.08 116.904 40.948 116.592 40.82C116.28 40.692 116.008 40.496 115.776 40.232C115.552 39.968 115.44 39.62 115.44 39.188C115.44 38.836 115.544 38.516 115.752 38.228C115.96 37.932 116.256 37.7 116.64 37.532C117.032 37.364 117.48 37.28 117.984 37.28C118.736 37.28 119.34 37.472 119.796 37.856C120.26 38.232 120.508 38.748 120.54 39.404H119.172C119.148 39.108 119.028 38.872 118.812 38.696C118.596 38.52 118.304 38.432 117.936 38.432C117.576 38.432 117.3 38.5 117.108 38.636C116.916 38.772 116.82 38.952 116.82 39.176C116.82 39.352 116.884 39.5 117.012 39.62C117.14 39.74 117.296 39.836 117.48 39.908C117.664 39.972 117.936 40.056 118.296 40.16C118.776 40.288 119.168 40.42 119.472 40.556C119.784 40.684 120.052 40.876 120.276 41.132C120.5 41.388 120.616 41.728 120.624 42.152C120.624 42.528 120.52 42.864 120.312 43.16C120.104 43.456 119.808 43.688 119.424 43.856C119.048 44.024 118.604 44.108 118.092 44.108Z" fill="white"/>
<path d="M35.0069 36.5489C34.5069 36.0495 61.5069 2.54879 62.5069 4.04891C63.5069 5.54904 63.5069 29.5489 63.5069 29.5489H67.0069C67.0069 29.5489 66.5069 27.0495 67.0069 27.0489C67.5068 27.0483 75.0069 33.5495 75.0069 34.0489C75.0068 34.5483 67.5068 39.5483 67.0069 39.5489C66.5069 39.5495 67.0069 38.0489 67.0069 38.0489C67.0069 38.0489 63.0069 37.5495 62.5069 38.0489C62.5069 38.0489 63.0068 48.0489 62.5069 48.0489H55.5069C55.0069 48.0489 55.5068 37.0483 55.5069 36.5489C55.5069 36.0495 35.5068 37.0483 35.0069 36.5489Z" fill="white"/>
<path d="M56.5 19.5L49.5 28H56L56.5 19.5Z" fill="#DBC323"/>
</svg>
