<svg width="21" height="18" viewBox="0 0 21 18" fill="none" xmlns="http://www.w3.org/2000/svg">
<path d="M3.42124 0.903198H17.3567C18.2136 0.903142 19.0381 1.231 19.661 1.8195C20.2838 2.40801 20.6579 3.21256 20.7064 4.0681L20.7116 4.25804V14.0645C20.7116 14.9214 20.3838 15.7459 19.7953 16.3687C19.2068 16.9916 18.4022 17.3657 17.5467 17.4142L17.3567 17.4193H3.42124C2.56433 17.4194 1.73987 17.0915 1.11701 16.503C0.49414 15.9145 0.120082 15.11 0.0715677 14.2544L0.0664063 14.0645V4.25804C0.0663502 3.40112 0.394204 2.57667 0.982713 1.9538C1.57122 1.33093 2.37577 0.956874 3.23131 0.90836L3.42124 0.903198ZM19.1632 6.44952L10.7503 10.8779C10.6553 10.9281 10.5509 10.958 10.4437 10.9656C10.3366 10.9732 10.229 10.9585 10.1278 10.9223L10.0287 10.8789L1.61479 6.45055V14.0645C1.61481 14.5178 1.78529 14.9546 2.0924 15.2881C2.3995 15.6216 2.82078 15.8274 3.2726 15.8647L3.42124 15.8709H17.3567C17.8102 15.8709 18.2472 15.7003 18.5807 15.393C18.9142 15.0856 19.1199 14.6641 19.157 14.2121L19.1632 14.0645V6.44952ZM17.3567 2.45159H3.42124C2.96789 2.4516 2.53111 2.62208 2.19762 2.92919C1.86412 3.2363 1.65829 3.65757 1.62099 4.10939L1.61479 4.25804V4.70088L10.389 9.31817L19.1632 4.69984V4.25804C19.1631 3.80452 18.9925 3.3676 18.6852 3.03408C18.3779 2.70056 17.9563 2.49484 17.5043 2.45778L17.3567 2.45159Z" fill="#3D5AF1"/>
</svg>
