<svg width="22" height="22" viewBox="0 0 22 22" fill="none" xmlns="http://www.w3.org/2000/svg">
<path d="M2.95848 2.12897H7.59332L9.087 5.86368L6.687 7.46368C6.54567 7.55797 6.4298 7.6857 6.34966 7.83552C6.26953 7.98533 6.22762 8.15262 6.22765 8.32252C6.23074 8.41955 6.22765 8.32355 6.22765 8.32355V8.34523C6.22826 8.39139 6.23032 8.43752 6.23384 8.48355C6.24003 8.5682 6.25036 8.68278 6.26997 8.82419C6.31023 9.1029 6.38765 9.4869 6.53836 9.93903C6.84184 10.8474 7.43642 12.0232 8.59461 13.1814C9.75281 14.3395 10.9285 14.9341 11.8359 15.2376C12.2891 15.3883 12.672 15.4647 12.9528 15.506C13.1113 15.5281 13.2708 15.5419 13.4307 15.5473L13.4442 15.5483H13.4524C13.4524 15.5483 13.568 15.5421 13.4535 15.5483C13.6451 15.5482 13.8329 15.4948 13.9959 15.3939C14.1589 15.2931 14.2906 15.1489 14.3763 14.9775L15.0679 13.5943L19.647 14.3581V18.8175C17.4679 19.1323 11.582 19.443 6.95745 14.8185C2.33294 10.194 2.64261 4.30703 2.95848 2.12897ZM8.36752 8.82419L10.2328 7.58136C10.6269 7.31851 10.9186 6.92816 11.059 6.47577C11.1993 6.02338 11.1799 5.53647 11.0039 5.09671L9.51023 1.362C9.35695 0.978936 9.09241 0.650584 8.75073 0.419304C8.40905 0.188024 8.00592 0.0644255 7.59332 0.0644531H2.90481C1.96648 0.0644531 1.0839 0.715808 0.930098 1.73361C0.57913 4.04794 0.103259 10.8836 5.49784 16.2781C10.8924 21.6727 17.728 21.1958 20.0424 20.8459C21.0602 20.691 21.7115 19.8095 21.7115 18.8712V14.3581C21.7116 13.8694 21.5383 13.3965 21.2224 13.0236C20.9066 12.6507 20.4687 12.4019 19.9866 12.3215L15.4075 11.5586C14.972 11.486 14.5247 11.5548 14.1311 11.7551C13.7376 11.9554 13.4187 12.2765 13.2212 12.6714L12.864 13.3868C12.7377 13.3557 12.6127 13.3195 12.4893 13.2784C11.8493 13.0657 10.9605 12.6281 10.0542 11.7217C9.1479 10.8154 8.71023 9.92665 8.49758 9.28561C8.44681 9.13409 8.40374 8.98008 8.36855 8.82419H8.36752Z" fill="#3D5AF1"/>
</svg>
