<?xml version="1.0" encoding="UTF-8" standalone="no" ?>
<!DOCTYPE svg PUBLIC "-//W3C//DTD SVG 1.1//EN" "http://www.w3.org/Graphics/SVG/1.1/DTD/svg11.dtd">
<svg xmlns="http://www.w3.org/2000/svg" xmlns:xlink="http://www.w3.org/1999/xlink" version="1.1" width="1080" height="1080" viewBox="0 0 1080 1080" xml:space="preserve">
<desc>Created with Fabric.js 5.2.4</desc>
<defs>
</defs>
<rect x="0" y="0" width="100%" height="100%" fill="transparent"></rect>
<g transform="matrix(1 0 0 1 540 540)" id="c693f26c-d332-49ee-b340-3b01259c73a9"  >
<rect style="stroke: none; stroke-width: 1; stroke-dasharray: none; stroke-linecap: butt; stroke-dashoffset: 0; stroke-linejoin: miter; stroke-miterlimit: 4; fill: rgb(255,255,255); fill-rule: nonzero; opacity: 1; visibility: hidden;" vector-effect="non-scaling-stroke"  x="-540" y="-540" rx="0" ry="0" width="1080" height="1080" />
</g>
<g transform="matrix(1 0 0 1 540 540)" id="fe4003ca-beb4-4d26-b042-dff5f9c888e7"  >
</g>
<g transform="matrix(1.89 0 0 1.45 1216.99 438.92)"  >
<path style="stroke: none; stroke-width: 1; stroke-dasharray: none; stroke-linecap: butt; stroke-dashoffset: 0; stroke-linejoin: miter; stroke-miterlimit: 4; fill: rgb(244,235,255); fill-rule: nonzero; opacity: 1;" vector-effect="non-scaling-stroke"  transform=" translate(-1337.64, -132.11)" d="M 1154.58 127.102 L 1520.71 81.3218 L 1520.71 137.112 L 1154.58 182.893 L 1154.58 127.102 Z" stroke-linecap="round" />
</g>
<g transform="matrix(1.52 0 0 1.28 971.64 394.52)"  >
<path style="stroke: none; stroke-width: 1; stroke-dasharray: none; stroke-linecap: butt; stroke-dashoffset: 0; stroke-linejoin: miter; stroke-miterlimit: 4; fill: rgb(183,176,255); fill-opacity: 0.4; fill-rule: nonzero; opacity: 1;" vector-effect="non-scaling-stroke"  transform=" translate(-1044.75, -113.5)" d="M 778 119.085 L 1311.5 52.1292 L 1311.5 107.92 L 778 174.875 L 778 119.085 Z" stroke-linecap="round" />
</g>
<g transform="matrix(2.28 0 0 1.37 1086.06 321.01)"  >
<path style="stroke: none; stroke-width: 1; stroke-dasharray: none; stroke-linecap: butt; stroke-dashoffset: 0; stroke-linejoin: miter; stroke-miterlimit: 4; fill: rgb(128,117,255); fill-rule: nonzero; opacity: 1;" vector-effect="non-scaling-stroke"  transform=" translate(-1100.54, -50.79)" d="M 917.476 45.7804 L 1283.6 0 L 1283.6 55.7904 L 917.476 101.571 L 917.476 45.7804 Z" stroke-linecap="round" />
</g>
<g transform="matrix(2.31 0 0 1.3 43.75 606.39)"  >
<path style="stroke: none; stroke-width: 1; stroke-dasharray: none; stroke-linecap: butt; stroke-dashoffset: 0; stroke-linejoin: miter; stroke-miterlimit: 4; fill: rgb(183,176,255); fill-opacity: 0.4; fill-rule: nonzero; opacity: 1;" vector-effect="non-scaling-stroke"  transform=" translate(-240.57, -452.79)" d="M 57.5029 447.78 L 423.628 402 L 423.628 457.79 L 57.5029 503.571 L 57.5029 447.78 Z" stroke-linecap="round" />
</g>
<g transform="matrix(2.11 0 0 1.23 -56.1 684.71)"  >
<path style="stroke: none; stroke-width: 1; stroke-dasharray: none; stroke-linecap: butt; stroke-dashoffset: 0; stroke-linejoin: miter; stroke-miterlimit: 4; fill: rgb(74,58,255); fill-opacity: 0.7; fill-rule: nonzero; opacity: 1;" vector-effect="non-scaling-stroke"  transform=" translate(-183.06, -514.13)" d="M 0 509.124 L 366.125 463.344 L 366.125 519.134 L 0 564.915 L 0 509.124 Z" stroke-linecap="round" />
</g>
</svg>