<svg width="15" height="16" viewBox="0 0 15 16" fill="none" xmlns="http://www.w3.org/2000/svg">
<path fill-rule="evenodd" clip-rule="evenodd" d="M8.62042 1.21251C7.9006 0.604944 6.84757 0.604945 6.12775 1.21251L5.47219 1.76583C5.16624 2.02406 4.78763 2.1809 4.38869 2.21464L3.53389 2.28692C2.59528 2.3663 1.85068 3.1109 1.7713 4.04951L1.69901 4.90432C1.66527 5.30326 1.50844 5.68186 1.25021 5.98782L0.696886 6.64337C0.0893187 7.3632 0.0893196 8.41622 0.696886 9.13605L1.25021 9.7916C1.50844 10.0975 1.66527 10.4762 1.69901 10.8751L1.7713 11.7299C1.85068 12.6686 2.59528 13.4132 3.53389 13.4925L4.38869 13.5648C4.78763 13.5986 5.16624 13.7554 5.4722 14.0136L6.12775 14.5669C6.84757 15.1744 7.9006 15.1744 8.62042 14.5669L9.27597 14.0136C9.58192 13.7554 9.96055 13.5986 10.3595 13.5648L11.2143 13.4925C12.1529 13.4132 12.8975 12.6686 12.9769 11.7299L13.0491 10.8751C13.0829 10.4762 13.2397 10.0975 13.498 9.7916L14.0513 9.13605C14.6588 8.41622 14.6588 7.3632 14.0513 6.64337L13.498 5.98781C13.2397 5.68186 13.0829 5.30326 13.0491 4.90432L12.9769 4.04951C12.8975 3.1109 12.1529 2.3663 11.2143 2.28692L10.3595 2.21464C9.96055 2.1809 9.58192 2.02406 9.27597 1.76583L8.62042 1.21251ZM10.8878 6.57231C11.2274 6.23274 11.2274 5.68218 10.8878 5.34261C10.5483 5.00303 9.99765 5.00303 9.65805 5.34261L6.40835 8.59234L5.09092 7.2749C4.75135 6.93532 4.20079 6.93532 3.86122 7.2749C3.52164 7.61447 3.52164 8.16503 3.86122 8.5046L5.79351 10.4369C6.13308 10.7765 6.68364 10.7765 7.02321 10.4369L10.8878 6.57231Z" fill="#252430"/>
</svg>
