<?xml version="1.0" standalone="no"?>
<!DOCTYPE svg PUBLIC "-//W3C//DTD SVG 20010904//EN"
 "http://www.w3.org/TR/2001/REC-SVG-20010904/DTD/svg10.dtd">
<svg version="1.0" xmlns="http://www.w3.org/2000/svg"
 width="839.000000pt" height="297.000000pt" viewBox="0 0 839.000000 297.000000"
 preserveAspectRatio="xMidYMid meet">

<g transform="translate(0.000000,297.000000) scale(0.100000,-0.100000)"
fill="#000000" stroke="none">
<path d="M3953 2738 c-16 -18 -97 -114 -179 -213 -81 -99 -211 -256 -289 -350
-77 -93 -215 -260 -306 -370 -92 -110 -261 -315 -378 -455 -128 -155 -211
-263 -211 -276 0 -12 6 -27 13 -33 10 -7 171 -12 538 -13 l524 -3 5 -271 c4
-209 8 -275 19 -287 11 -15 37 -17 176 -17 123 0 165 3 174 13 7 9 12 105 13
283 l3 269 93 3 92 3 0 -55 c0 -86 -21 -94 253 97 87 61 156 116 155 123 -4
18 -380 364 -395 364 -9 0 -13 -20 -13 -65 l0 -65 -95 0 -95 0 0 656 c0 432
-4 662 -10 675 -16 29 -52 23 -87 -13z m-323 -1108 l0 -200 -154 0 c-85 0
-157 4 -160 9 -7 11 285 390 302 390 9 1 12 -45 12 -199z"/>
<path d="M2036 2537 c-10 -15 -17 -61 -21 -137 -3 -63 -8 -143 -11 -177 l-6
-62 -39 26 c-51 33 -119 40 -191 19 -104 -30 -175 -128 -198 -271 -33 -209 83
-378 260 -378 101 0 229 77 250 151 5 20 10 105 10 187 0 83 7 236 15 340 19
247 19 290 -1 309 -22 23 -51 20 -68 -7z m-122 -441 c18 -7 43 -27 55 -44 19
-27 21 -43 21 -166 0 -135 0 -135 -27 -161 -42 -40 -81 -57 -128 -57 -75 0
-140 51 -165 128 -19 55 -7 174 22 226 40 74 141 108 222 74z"/>
<path d="M1321 2474 c-12 -15 -21 -34 -21 -44 0 -27 39 -70 64 -70 29 0 66 40
66 71 0 30 -38 69 -67 69 -12 0 -31 -12 -42 -26z"/>
<path d="M668 2208 c-18 -32 -18 -431 0 -511 17 -72 59 -120 122 -137 86 -23
213 9 284 71 l41 37 6 258 c6 213 4 263 -7 282 -18 28 -55 29 -79 2 -17 -19
-19 -46 -24 -268 l-6 -247 -73 -14 c-103 -20 -147 -6 -162 50 -14 50 -18 289
-7 390 7 65 6 79 -8 93 -24 24 -72 21 -87 -6z"/>
<path d="M2399 2200 c-105 -55 -176 -220 -167 -385 5 -93 28 -145 84 -195 59
-51 98 -64 199 -64 78 0 98 3 153 28 105 48 149 119 102 166 -27 27 -36 25
-73 -15 -79 -85 -234 -93 -318 -18 -22 20 -39 39 -39 43 0 5 55 36 123 71 224
114 267 151 267 235 0 54 -33 103 -90 132 -59 29 -187 31 -241 2z m190 -108
c19 -9 36 -22 39 -29 5 -16 -283 -182 -295 -170 -9 10 26 112 53 150 44 65
132 86 203 49z"/>
<path d="M270 2203 c-155 -25 -260 -170 -260 -357 0 -116 27 -178 101 -238 28
-23 50 -31 95 -35 77 -7 123 12 165 69 l31 43 -5 -90 c-7 -111 -28 -175 -73
-214 -44 -39 -90 -47 -197 -32 -102 15 -120 8 -115 -43 5 -53 50 -68 189 -64
109 3 118 5 165 33 36 23 56 44 76 85 36 70 44 116 58 325 6 94 18 219 26 280
8 60 12 122 9 136 -4 17 -23 37 -55 58 -73 48 -124 58 -210 44z m131 -109 l30
-15 -6 -67 c-10 -94 -32 -207 -45 -233 -23 -42 -82 -98 -116 -109 -28 -10 -40
-9 -71 7 -48 23 -74 68 -80 142 -10 112 40 231 114 270 47 25 132 27 174 5z"/>
<path d="M1317 2198 c-33 -25 -46 -541 -15 -600 10 -21 61 -24 75 -5 6 7 13
135 17 298 5 269 5 287 -12 303 -22 19 -42 20 -65 4z"/>
<path d="M4690 1039 c-61 -24 -145 -139 -174 -238 -19 -64 -21 -138 -4 -192
13 -46 68 -113 108 -134 50 -26 139 -34 198 -19 118 31 175 82 137 124 -23 26
-33 25 -86 -4 -88 -48 -161 -42 -227 19 -36 32 -37 36 -37 102 1 57 6 78 33
128 38 72 49 86 85 110 35 23 98 14 149 -22 36 -24 39 -25 63 -9 33 22 33 60
-2 92 -48 45 -179 68 -243 43z"/>
<path d="M5235 1026 c-56 -20 -79 -34 -116 -74 -57 -63 -73 -115 -67 -219 8
-112 39 -186 97 -229 60 -44 121 -64 193 -64 64 0 152 29 174 57 10 14 13 70
14 254 0 273 1 270 -88 288 -79 16 -129 13 -207 -13z m207 -103 c16 -14 18
-35 18 -173 0 -155 0 -157 -26 -181 -22 -21 -35 -24 -99 -24 -65 0 -78 3 -116
30 -32 23 -48 44 -62 80 -50 135 3 254 127 286 45 12 137 1 158 -18z"/>
<path d="M5887 1025 c-21 -8 -57 -28 -80 -45 l-41 -30 -11 37 c-9 33 -15 38
-43 41 -27 3 -34 -1 -42 -23 -6 -15 -10 -135 -10 -280 0 -217 2 -256 16 -269
20 -20 48 -20 68 0 13 13 16 44 16 183 l0 168 29 40 c36 50 83 79 150 94 66
14 111 50 95 76 -14 23 -94 28 -147 8z"/>
<path d="M6345 1025 c-54 -21 -110 -79 -142 -145 -35 -74 -44 -208 -19 -275
22 -55 93 -121 150 -136 152 -43 366 28 366 120 0 37 -29 57 -60 41 -11 -6
-20 -15 -20 -21 0 -5 -24 -21 -52 -34 -91 -43 -214 -30 -275 27 -13 12 -23 26
-23 32 0 6 69 44 154 85 179 85 221 119 221 181 0 80 -70 131 -189 137 -47 2
-85 -2 -111 -12z m188 -102 c16 -8 27 -20 25 -26 -3 -7 -69 -45 -149 -85 -126
-65 -144 -71 -147 -55 -4 26 29 101 62 141 15 17 42 36 59 41 39 12 112 4 150
-16z"/>
<path d="M6955 1024 c-53 -19 -110 -77 -143 -143 -21 -44 -27 -73 -30 -148 -4
-85 -2 -98 22 -147 45 -91 121 -129 256 -129 131 1 250 64 250 132 0 41 -31
59 -66 36 -13 -8 -24 -19 -24 -23 0 -5 -17 -16 -37 -26 -49 -24 -159 -32 -207
-16 -41 13 -96 56 -96 73 0 7 67 44 148 82 81 39 164 85 185 104 33 30 37 39
37 81 0 37 -6 55 -26 79 -46 55 -180 77 -269 45z m187 -100 c16 -8 28 -18 28
-22 0 -12 -94 -66 -200 -116 -109 -51 -118 -46 -80 42 25 57 64 99 106 112 36
11 109 3 146 -16z"/>
<path d="M7660 1033 c-36 -12 -97 -46 -117 -65 -22 -20 -23 -20 -29 -2 -19 60
-23 65 -57 62 -31 -3 -32 -5 -39 -58 -8 -71 -10 -468 -2 -498 8 -27 44 -38 73
-22 20 10 21 18 21 177 0 160 1 168 25 209 29 49 92 91 158 105 89 20 117 42
101 83 -5 12 -19 16 -63 15 -31 0 -63 -3 -71 -6z"/>
<path d="M8058 1031 c-41 -13 -91 -47 -106 -71 -21 -35 -26 -102 -9 -143 19
-44 63 -73 137 -88 90 -18 139 -44 154 -81 18 -42 7 -65 -42 -85 -50 -21 -149
-13 -197 16 -41 24 -65 27 -83 9 -19 -19 -14 -65 10 -88 50 -46 200 -67 296
-41 94 26 145 109 122 199 -22 90 -80 135 -216 168 -88 21 -103 34 -81 68 34
51 171 60 242 16 44 -27 76 -23 93 12 31 65 -48 110 -198 115 -52 1 -107 -2
-122 -6z"/>
</g>
</svg>
