<svg width="29" height="29" viewBox="0 0 29 29" fill="none" xmlns="http://www.w3.org/2000/svg">
<g filter="url(#filter0_d_1047_11680)">
<circle cx="14.334" cy="11.3334" r="11" fill="#5D3464"/>
</g>
<path d="M14.3336 8.50818C13.5841 8.50818 12.8654 8.80589 12.3355 9.33583C11.8055 9.86577 11.5078 10.5845 11.5078 11.334C11.5078 12.0834 11.8055 12.8021 12.3355 13.3321C12.8654 13.862 13.5841 14.1597 14.3336 14.1597C15.083 14.1597 15.8018 13.862 16.3317 13.3321C16.8617 12.8021 17.1594 12.0834 17.1594 11.334C17.1594 10.5845 16.8617 9.86577 16.3317 9.33583C15.8018 8.80589 15.083 8.50818 14.3336 8.50818ZM14.3336 13.1691C13.8467 13.1691 13.3798 12.9757 13.0355 12.6314C12.6912 12.2872 12.4978 11.8202 12.4978 11.3333C12.4978 10.8465 12.6912 10.3795 13.0355 10.0353C13.3798 9.69098 13.8467 9.49757 14.3336 9.49757C14.8205 9.49757 15.2874 9.69098 15.6317 10.0353C15.976 10.3795 16.1694 10.8465 16.1694 11.3333C16.1694 11.8202 15.976 12.2872 15.6317 12.6314C15.2874 12.9757 14.8205 13.1691 14.3336 13.1691Z" fill="white"/>
<path d="M17.2701 9.06304C17.6339 9.06304 17.9289 8.76809 17.9289 8.40426C17.9289 8.04043 17.6339 7.74548 17.2701 7.74548C16.9063 7.74548 16.6113 8.04043 16.6113 8.40426C16.6113 8.76809 16.9063 9.06304 17.2701 9.06304Z" fill="white"/>
<path d="M19.5474 7.73441C19.4059 7.36908 19.1897 7.03731 18.9126 6.76034C18.6356 6.48337 18.3037 6.2673 17.9383 6.12597C17.5107 5.96547 17.059 5.87868 16.6024 5.8693C16.0139 5.84364 15.8275 5.8363 14.3352 5.8363C12.8429 5.8363 12.6516 5.8363 12.068 5.8693C11.6117 5.8782 11.1603 5.965 10.7333 6.12597C10.3678 6.26714 10.0359 6.48315 9.7588 6.76014C9.4817 7.03713 9.26557 7.36898 9.12426 7.73441C8.96373 8.16196 8.87714 8.6137 8.86821 9.0703C8.84193 9.65819 8.83398 9.84458 8.83398 11.3375C8.83398 12.8299 8.83398 13.0199 8.86821 13.6047C8.87737 14.0619 8.96354 14.5129 9.12426 14.9412C9.26597 15.3065 9.48231 15.6383 9.75947 15.9152C10.0366 16.1922 10.3685 16.4083 10.7339 16.5497C11.1601 16.7166 11.6117 16.8096 12.0692 16.8247C12.6577 16.8504 12.8441 16.8583 14.3364 16.8583C15.8288 16.8583 16.02 16.8583 16.6037 16.8247C17.0602 16.8154 17.5119 16.7288 17.9395 16.5686C18.3048 16.427 18.6366 16.2107 18.9136 15.9337C19.1907 15.6566 19.4069 15.3249 19.5486 14.9596C19.7093 14.5318 19.7955 14.0808 19.8047 13.6237C19.8309 13.0358 19.8389 12.8494 19.8389 11.3565C19.8389 9.86353 19.8389 9.67408 19.8047 9.08925C19.7975 8.62619 19.7105 8.16784 19.5474 7.73441ZM18.803 13.5595C18.7991 13.9117 18.7348 14.2606 18.613 14.5911C18.5212 14.8287 18.3807 15.0445 18.2005 15.2246C18.0203 15.4047 17.8045 15.5451 17.5668 15.6367C17.24 15.758 16.8948 15.8223 16.5462 15.8267C15.9657 15.8536 15.8019 15.8604 14.3132 15.8604C12.8233 15.8604 12.6712 15.8604 12.0796 15.8267C11.7312 15.8225 11.3862 15.7582 11.0597 15.6367C10.8211 15.5456 10.6044 15.4055 10.4234 15.2254C10.2425 15.0453 10.1013 14.8292 10.0092 14.5911C9.88903 14.2642 9.82479 13.9194 9.8191 13.5711C9.79282 12.9906 9.78671 12.8268 9.78671 11.3381C9.78671 9.84886 9.78671 9.69669 9.8191 9.10453C9.82305 8.75254 9.88733 8.40384 10.0092 8.07358C10.1955 7.59141 10.5775 7.21191 11.0597 7.02736C11.3863 6.90644 11.7313 6.84217 12.0796 6.8373C12.6608 6.81103 12.8239 6.80369 14.3132 6.80369C15.8025 6.80369 15.9553 6.80369 16.5462 6.8373C16.8948 6.8415 17.24 6.90579 17.5668 7.02736C17.8044 7.11919 18.0203 7.2597 18.2005 7.43988C18.3806 7.62005 18.5212 7.8359 18.613 8.07358C18.7331 8.40049 18.7973 8.74529 18.803 9.09353C18.8293 9.67469 18.836 9.83786 18.836 11.3271C18.836 12.8158 18.836 12.9759 18.8098 13.5601H18.803V13.5595Z" fill="white"/>
<defs>
<filter id="filter0_d_1047_11680" x="0.400651" y="0.333374" width="27.8667" height="27.8667" filterUnits="userSpaceOnUse" color-interpolation-filters="sRGB">
<feFlood flood-opacity="0" result="BackgroundImageFix"/>
<feColorMatrix in="SourceAlpha" type="matrix" values="0 0 0 0 0 0 0 0 0 0 0 0 0 0 0 0 0 0 127 0" result="hardAlpha"/>
<feOffset dy="2.93333"/>
<feGaussianBlur stdDeviation="1.46667"/>
<feComposite in2="hardAlpha" operator="out"/>
<feColorMatrix type="matrix" values="0 0 0 0 0 0 0 0 0 0 0 0 0 0 0 0 0 0 0.25 0"/>
<feBlend mode="normal" in2="BackgroundImageFix" result="effect1_dropShadow_1047_11680"/>
<feBlend mode="normal" in="SourceGraphic" in2="effect1_dropShadow_1047_11680" result="shape"/>
</filter>
</defs>
</svg>
