<svg width="29" height="29" viewBox="0 0 29 29" fill="none" xmlns="http://www.w3.org/2000/svg">
<g filter="url(#filter0_d_1047_11686)">
<circle cx="14.334" cy="11.6666" r="11" fill="#5D3464"/>
</g>
<g clip-path="url(#clip0_1047_11686)">
<path d="M15.7997 11.3366C16.4722 10.6494 17.3478 10.1999 18.3664 10.1999C19.4361 10.1999 20.462 10.6248 21.2184 11.3812C21.9748 12.1376 22.3997 13.1635 22.3997 14.2332V19.7332H20.9331V14.2332C20.9331 13.5525 20.6627 12.8997 20.1813 12.4183C19.7 11.937 19.0471 11.6666 18.3664 11.6666C17.6857 11.6666 17.0328 11.937 16.5515 12.4183C16.0702 12.8997 15.7997 13.5525 15.7997 14.2332V19.7332H14.3331V10.5666H15.7997V11.3366ZM10.6664 9.0999C10.3747 9.0999 10.0949 8.98401 9.88859 8.77772C9.6823 8.57143 9.56641 8.29164 9.56641 7.9999C9.56641 7.70816 9.6823 7.42837 9.88859 7.22208C10.0949 7.01579 10.3747 6.8999 10.6664 6.8999C10.9581 6.8999 11.2379 7.01579 11.4442 7.22208C11.6505 7.42837 11.7664 7.70816 11.7664 7.9999C11.7664 8.29164 11.6505 8.57143 11.4442 8.77772C11.2379 8.98401 10.9581 9.0999 10.6664 9.0999ZM9.93307 10.5666H11.3997V19.7332H9.93307V10.5666Z" fill="black"/>
<path fill-rule="evenodd" clip-rule="evenodd" d="M12.7606 9.81437H15.0303V10.9449C15.3573 10.2947 16.1957 9.71049 17.4552 9.71049C19.8697 9.71049 20.4429 11.0048 20.4429 13.3796V17.7778H17.9985V13.9204C17.9985 12.568 17.6715 11.8054 16.8392 11.8054C15.6848 11.8054 15.2051 12.6273 15.2051 13.9198V17.7778H12.7606V9.81437ZM8.56904 17.6739H11.0135V9.71049H8.56904V17.6739ZM11.3636 7.11388C11.3637 7.31877 11.3231 7.52163 11.2441 7.71068C11.1651 7.89973 11.0493 8.07119 10.9035 8.2151C10.6079 8.50881 10.2079 8.67322 9.79126 8.67221C9.37533 8.67193 8.97623 8.50794 8.68026 8.21571C8.53494 8.07131 8.41955 7.89966 8.34069 7.71058C8.26183 7.52151 8.22106 7.31873 8.2207 7.11388C8.2207 6.70015 8.3857 6.30415 8.68087 6.01204C8.97658 5.71942 9.37585 5.55536 9.79187 5.55554C10.2086 5.55554 10.6083 5.71993 10.9035 6.01204C11.198 6.30415 11.3636 6.70015 11.3636 7.11388Z" fill="white"/>
</g>
<defs>
<filter id="filter0_d_1047_11686" x="0.400651" y="0.666626" width="27.8667" height="27.8667" filterUnits="userSpaceOnUse" color-interpolation-filters="sRGB">
<feFlood flood-opacity="0" result="BackgroundImageFix"/>
<feColorMatrix in="SourceAlpha" type="matrix" values="0 0 0 0 0 0 0 0 0 0 0 0 0 0 0 0 0 0 127 0" result="hardAlpha"/>
<feOffset dy="2.93333"/>
<feGaussianBlur stdDeviation="1.46667"/>
<feComposite in2="hardAlpha" operator="out"/>
<feColorMatrix type="matrix" values="0 0 0 0 0 0 0 0 0 0 0 0 0 0 0 0 0 0 0.25 0"/>
<feBlend mode="normal" in2="BackgroundImageFix" result="effect1_dropShadow_1047_11686"/>
<feBlend mode="normal" in="SourceGraphic" in2="effect1_dropShadow_1047_11686" result="shape"/>
</filter>
<clipPath id="clip0_1047_11686">
<rect width="14.6667" height="14.6667" fill="white" transform="translate(6.99805 4.33325)"/>
</clipPath>
</defs>
</svg>
